<mxfile host="Electron" modified="2023-06-09T06:47:20.059Z" agent="Mozilla/5.0 (Windows NT 10.0; Win64; x64) AppleWebKit/537.36 (KHTML, like Gecko) draw.io/21.2.8 Chrome/112.0.5615.165 Electron/24.2.0 Safari/537.36" etag="oEDuFQVQrOAUPJnlkXu0" version="21.2.8" type="device">
  <diagram name="Page-1" id="SuZEew9TOA1hloKFOrxG">
    <mxGraphModel dx="1418" dy="828" grid="1" gridSize="10" guides="1" tooltips="1" connect="1" arrows="1" fold="1" page="1" pageScale="1" pageWidth="827" pageHeight="1169" math="0" shadow="0">
      <root>
        <mxCell id="0" />
        <mxCell id="1" parent="0" />
        <mxCell id="WXgjw30DrMRq_QYT7Y3j-2" value="管理員" style="shape=umlActor;verticalLabelPosition=bottom;verticalAlign=top;html=1;outlineConnect=0;" parent="1" vertex="1">
          <mxGeometry x="90" y="395" width="30" height="60" as="geometry" />
        </mxCell>
        <mxCell id="WXgjw30DrMRq_QYT7Y3j-3" style="rounded=0;orthogonalLoop=1;jettySize=auto;html=1;exitX=1;exitY=0.3333333333333333;exitDx=0;exitDy=0;exitPerimeter=0;entryX=0;entryY=0.5;entryDx=0;entryDy=0;endArrow=none;endFill=0;" parent="1" source="WXgjw30DrMRq_QYT7Y3j-2" target="WXgjw30DrMRq_QYT7Y3j-8" edge="1">
          <mxGeometry relative="1" as="geometry">
            <mxPoint x="90" y="455" as="sourcePoint" />
            <mxPoint x="242" y="315" as="targetPoint" />
          </mxGeometry>
        </mxCell>
        <mxCell id="WXgjw30DrMRq_QYT7Y3j-5" style="rounded=0;orthogonalLoop=1;jettySize=auto;html=1;exitX=1;exitY=0.3333333333333333;exitDx=0;exitDy=0;exitPerimeter=0;entryX=0;entryY=0.5;entryDx=0;entryDy=0;endArrow=none;endFill=0;" parent="1" source="WXgjw30DrMRq_QYT7Y3j-2" target="WXgjw30DrMRq_QYT7Y3j-15" edge="1">
          <mxGeometry relative="1" as="geometry">
            <mxPoint x="90" y="455" as="sourcePoint" />
            <mxPoint x="242" y="430" as="targetPoint" />
          </mxGeometry>
        </mxCell>
        <mxCell id="WXgjw30DrMRq_QYT7Y3j-6" style="rounded=0;orthogonalLoop=1;jettySize=auto;html=1;entryX=0;entryY=0.5;entryDx=0;entryDy=0;endArrow=none;endFill=0;exitX=1;exitY=0.3333333333333333;exitDx=0;exitDy=0;exitPerimeter=0;" parent="1" source="WXgjw30DrMRq_QYT7Y3j-2" target="WXgjw30DrMRq_QYT7Y3j-16" edge="1">
          <mxGeometry relative="1" as="geometry">
            <mxPoint x="80" y="445" as="sourcePoint" />
            <mxPoint x="242" y="490" as="targetPoint" />
          </mxGeometry>
        </mxCell>
        <mxCell id="WXgjw30DrMRq_QYT7Y3j-7" style="rounded=0;orthogonalLoop=1;jettySize=auto;html=1;entryX=0;entryY=0.5;entryDx=0;entryDy=0;endArrow=none;endFill=0;exitX=1;exitY=0.3333333333333333;exitDx=0;exitDy=0;exitPerimeter=0;" parent="1" source="WXgjw30DrMRq_QYT7Y3j-2" target="WXgjw30DrMRq_QYT7Y3j-17" edge="1">
          <mxGeometry relative="1" as="geometry">
            <mxPoint x="90" y="455" as="sourcePoint" />
            <mxPoint x="242" y="550" as="targetPoint" />
          </mxGeometry>
        </mxCell>
        <mxCell id="WXgjw30DrMRq_QYT7Y3j-8" value="管理會員" style="ellipse;whiteSpace=wrap;html=1;container=0;" parent="1" vertex="1">
          <mxGeometry x="232" y="335" width="108" height="40" as="geometry" />
        </mxCell>
        <mxCell id="WXgjw30DrMRq_QYT7Y3j-15" value="管理最新消息" style="ellipse;whiteSpace=wrap;html=1;container=0;" parent="1" vertex="1">
          <mxGeometry x="232" y="520" width="108" height="40" as="geometry" />
        </mxCell>
        <mxCell id="WXgjw30DrMRq_QYT7Y3j-16" value="管理常見問題" style="ellipse;whiteSpace=wrap;html=1;container=0;" parent="1" vertex="1">
          <mxGeometry x="232" y="580" width="108" height="40" as="geometry" />
        </mxCell>
        <mxCell id="WXgjw30DrMRq_QYT7Y3j-17" value="管理客服案件" style="ellipse;whiteSpace=wrap;html=1;container=0;" parent="1" vertex="1">
          <mxGeometry x="232" y="640" width="108" height="40" as="geometry" />
        </mxCell>
        <mxCell id="WXgjw30DrMRq_QYT7Y3j-23" value="編輯爬蟲資料來源" style="ellipse;whiteSpace=wrap;html=1;container=0;" parent="1" vertex="1">
          <mxGeometry x="230" y="460" width="108" height="40" as="geometry" />
        </mxCell>
        <mxCell id="WXgjw30DrMRq_QYT7Y3j-24" style="rounded=0;orthogonalLoop=1;jettySize=auto;html=1;entryX=0;entryY=0.5;entryDx=0;entryDy=0;endArrow=none;endFill=0;exitX=1;exitY=0.3333333333333333;exitDx=0;exitDy=0;exitPerimeter=0;" parent="1" source="WXgjw30DrMRq_QYT7Y3j-2" target="WXgjw30DrMRq_QYT7Y3j-23" edge="1">
          <mxGeometry relative="1" as="geometry">
            <mxPoint x="140" y="465" as="sourcePoint" />
            <mxPoint x="242" y="615" as="targetPoint" />
          </mxGeometry>
        </mxCell>
        <mxCell id="WXgjw30DrMRq_QYT7Y3j-25" value="登出" style="ellipse;whiteSpace=wrap;html=1;container=0;" parent="1" vertex="1">
          <mxGeometry x="230" y="217" width="108" height="40" as="geometry" />
        </mxCell>
        <mxCell id="WXgjw30DrMRq_QYT7Y3j-26" style="rounded=0;orthogonalLoop=1;jettySize=auto;html=1;exitX=1;exitY=0.3333333333333333;exitDx=0;exitDy=0;exitPerimeter=0;entryX=0;entryY=0.5;entryDx=0;entryDy=0;endArrow=none;endFill=0;" parent="1" source="WXgjw30DrMRq_QYT7Y3j-2" target="WXgjw30DrMRq_QYT7Y3j-25" edge="1">
          <mxGeometry relative="1" as="geometry">
            <mxPoint x="140" y="465" as="sourcePoint" />
            <mxPoint x="242" y="245" as="targetPoint" />
          </mxGeometry>
        </mxCell>
        <mxCell id="WXgjw30DrMRq_QYT7Y3j-28" value="登入" style="ellipse;whiteSpace=wrap;html=1;container=0;" parent="1" vertex="1">
          <mxGeometry x="230" y="157" width="108" height="40" as="geometry" />
        </mxCell>
        <mxCell id="WXgjw30DrMRq_QYT7Y3j-30" style="rounded=0;orthogonalLoop=1;jettySize=auto;html=1;exitX=1;exitY=0.3333333333333333;exitDx=0;exitDy=0;exitPerimeter=0;entryX=0;entryY=0.5;entryDx=0;entryDy=0;endArrow=none;endFill=0;" parent="1" source="WXgjw30DrMRq_QYT7Y3j-2" target="WXgjw30DrMRq_QYT7Y3j-28" edge="1">
          <mxGeometry relative="1" as="geometry">
            <mxPoint x="140" y="465" as="sourcePoint" />
            <mxPoint x="240" y="305" as="targetPoint" />
          </mxGeometry>
        </mxCell>
        <mxCell id="WXgjw30DrMRq_QYT7Y3j-31" style="rounded=0;orthogonalLoop=1;jettySize=auto;html=1;endArrow=block;endFill=0;exitX=0;exitY=0.5;exitDx=0;exitDy=0;entryX=1.001;entryY=0.411;entryDx=0;entryDy=0;entryPerimeter=0;" parent="1" source="WXgjw30DrMRq_QYT7Y3j-33" target="WXgjw30DrMRq_QYT7Y3j-15" edge="1">
          <mxGeometry relative="1" as="geometry">
            <mxPoint x="430" y="535" as="sourcePoint" />
            <mxPoint x="341" y="537" as="targetPoint" />
          </mxGeometry>
        </mxCell>
        <mxCell id="WXgjw30DrMRq_QYT7Y3j-33" value="編輯重要公告" style="ellipse;whiteSpace=wrap;html=1;container=0;" parent="1" vertex="1">
          <mxGeometry x="470" y="495" width="108" height="40" as="geometry" />
        </mxCell>
        <mxCell id="WXgjw30DrMRq_QYT7Y3j-34" style="rounded=0;orthogonalLoop=1;jettySize=auto;html=1;endArrow=block;endFill=0;exitX=0;exitY=0.5;exitDx=0;exitDy=0;entryX=1.003;entryY=0.611;entryDx=0;entryDy=0;entryPerimeter=0;" parent="1" source="WXgjw30DrMRq_QYT7Y3j-36" target="WXgjw30DrMRq_QYT7Y3j-15" edge="1">
          <mxGeometry relative="1" as="geometry">
            <mxPoint x="490" y="655" as="sourcePoint" />
            <mxPoint x="350" y="555" as="targetPoint" />
          </mxGeometry>
        </mxCell>
        <mxCell id="WXgjw30DrMRq_QYT7Y3j-36" value="編輯一般消息" style="ellipse;whiteSpace=wrap;html=1;container=0;" parent="1" vertex="1">
          <mxGeometry x="470" y="545" width="108" height="40" as="geometry" />
        </mxCell>
        <mxCell id="wSWPm3iXLJAQjEurI_lx-1" value="修改管理員資料" style="ellipse;whiteSpace=wrap;html=1;container=0;" parent="1" vertex="1">
          <mxGeometry x="232" y="395" width="108" height="40" as="geometry" />
        </mxCell>
        <mxCell id="wSWPm3iXLJAQjEurI_lx-2" style="rounded=0;orthogonalLoop=1;jettySize=auto;html=1;entryX=0;entryY=0.5;entryDx=0;entryDy=0;endArrow=none;endFill=0;exitX=1;exitY=0.3333333333333333;exitDx=0;exitDy=0;exitPerimeter=0;" parent="1" source="WXgjw30DrMRq_QYT7Y3j-2" target="wSWPm3iXLJAQjEurI_lx-1" edge="1">
          <mxGeometry relative="1" as="geometry">
            <mxPoint x="130" y="425" as="sourcePoint" />
            <mxPoint x="242" y="605" as="targetPoint" />
          </mxGeometry>
        </mxCell>
        <mxCell id="wSWPm3iXLJAQjEurI_lx-3" value="忘記密碼" style="ellipse;whiteSpace=wrap;html=1;container=0;" parent="1" vertex="1">
          <mxGeometry x="230" y="275" width="108" height="40" as="geometry" />
        </mxCell>
        <mxCell id="wSWPm3iXLJAQjEurI_lx-4" style="rounded=0;orthogonalLoop=1;jettySize=auto;html=1;exitX=1;exitY=0.3333333333333333;exitDx=0;exitDy=0;exitPerimeter=0;entryX=0;entryY=0.5;entryDx=0;entryDy=0;endArrow=none;endFill=0;" parent="1" source="WXgjw30DrMRq_QYT7Y3j-2" target="wSWPm3iXLJAQjEurI_lx-3" edge="1">
          <mxGeometry relative="1" as="geometry">
            <mxPoint x="120" y="470" as="sourcePoint" />
            <mxPoint x="242" y="300" as="targetPoint" />
          </mxGeometry>
        </mxCell>
        <mxCell id="wSWPm3iXLJAQjEurI_lx-5" style="rounded=0;orthogonalLoop=1;jettySize=auto;html=1;endArrow=classic;endFill=1;exitX=1;exitY=0.5;exitDx=0;exitDy=0;entryX=0;entryY=0.5;entryDx=0;entryDy=0;dashed=1;" parent="1" source="wSWPm3iXLJAQjEurI_lx-3" target="wSWPm3iXLJAQjEurI_lx-6" edge="1">
          <mxGeometry relative="1" as="geometry">
            <mxPoint x="440" y="400" as="sourcePoint" />
            <mxPoint x="480" y="440" as="targetPoint" />
          </mxGeometry>
        </mxCell>
        <mxCell id="wSWPm3iXLJAQjEurI_lx-8" value="&amp;lt;&amp;lt;include&amp;gt;&amp;gt;" style="edgeLabel;html=1;align=center;verticalAlign=middle;resizable=0;points=[];" parent="wSWPm3iXLJAQjEurI_lx-5" vertex="1" connectable="0">
          <mxGeometry x="0.0692" relative="1" as="geometry">
            <mxPoint as="offset" />
          </mxGeometry>
        </mxCell>
        <mxCell id="wSWPm3iXLJAQjEurI_lx-6" value="更改密碼" style="ellipse;whiteSpace=wrap;html=1;container=0;" parent="1" vertex="1">
          <mxGeometry x="470" y="335" width="108" height="40" as="geometry" />
        </mxCell>
        <mxCell id="wSWPm3iXLJAQjEurI_lx-9" style="rounded=0;orthogonalLoop=1;jettySize=auto;html=1;endArrow=classic;endFill=1;exitX=0;exitY=0.5;exitDx=0;exitDy=0;entryX=1;entryY=0.5;entryDx=0;entryDy=0;dashed=1;" parent="1" source="wSWPm3iXLJAQjEurI_lx-6" target="wSWPm3iXLJAQjEurI_lx-1" edge="1">
          <mxGeometry relative="1" as="geometry">
            <mxPoint x="360" y="360" as="sourcePoint" />
            <mxPoint x="522" y="460" as="targetPoint" />
          </mxGeometry>
        </mxCell>
        <mxCell id="wSWPm3iXLJAQjEurI_lx-10" value="&amp;lt;&amp;lt;extends&amp;gt;&amp;gt;" style="edgeLabel;html=1;align=center;verticalAlign=middle;resizable=0;points=[];" parent="wSWPm3iXLJAQjEurI_lx-9" vertex="1" connectable="0">
          <mxGeometry x="0.0692" relative="1" as="geometry">
            <mxPoint as="offset" />
          </mxGeometry>
        </mxCell>
      </root>
    </mxGraphModel>
  </diagram>
</mxfile>
